M48
;Layer_Color=9474304
;FILE_FORMAT=2:5
INCH,TZ
;TYPE=PLATED
T1F00S00C0.01181
T2F00S00C0.01968
T3F00S00C0.02800
T4F00S00C0.03543
T5F00S00C0.03937
T6F00S00C0.04724
T7F00S00C0.05118
T8F00S00C0.05512
%
T01
X149606Y143701
X149681Y147638
X149606Y151575
Y155512
X248200Y133500
X261233
X274267
X287300
X311100Y179600
Y189000
Y198400
Y224400
Y234380
Y244360
Y254340
Y264320
Y274300
X212598Y173721
X208760
Y169752
X212598
X208760Y165847
X178642Y169095
Y173000
X174705
Y169095
X170472
Y173000
Y176969
X174705
X178642
X149606Y175197
Y179134
Y183071
Y187008
Y190945
Y194882
Y198819
Y171260
Y167323
Y163386
Y159449
T02
X161319Y141732
X169193Y141634
X201181Y144488
X200787Y150492
X221654Y134744
X201138Y156504
X200787Y198524
X184055Y196555
X189567Y212303
X195079Y212106
X159941Y197146
X248031Y200098
X247638Y208465
T03
X210039Y197539
X253937Y192913
X289469Y203445
X291000Y244000
X265941
X217913Y256693
X218110Y263681
X181299Y255315
X181398Y276900
X154528Y210728
T04
X289370Y155984
X299370
Y165984
X289370
Y175984
Y185984
X299370
Y175984
X248819Y301279
X238819
T05
X162079Y220177
X192000
Y298917
X162079
X211000Y284000
X231000
X281000Y283500
X291000
X268327Y174606
X258327
X248327
X238327
X192000Y318602
X162079
T06
X263886Y299827
X303256Y291165
T07
X131800Y245400
Y265085
X132000Y291000
Y310685
T08
X209823Y315354
X229823
X269823
X289823
M30
