G04 Layer_Physical_Order=2*
G04 Layer_Color=16711680*
%FSLAX25Y25*%
%MOIN*%
G70*
G01*
G75*
%ADD10C,0.01575*%
%ADD11C,0.03150*%
%ADD12C,0.01968*%
%ADD13C,0.03937*%
%ADD14C,0.05905*%
%ADD15C,0.07874*%
%ADD16C,0.11811*%
%ADD17C,0.05905*%
G04:AMPARAMS|DCode=21|XSize=39.37mil|YSize=55.91mil|CornerRadius=1.97mil|HoleSize=0mil|Usage=FLASHONLY|Rotation=270.000|XOffset=0mil|YOffset=0mil|HoleType=Round|Shape=RoundedRectangle|*
%AMROUNDEDRECTD21*
21,1,0.03937,0.05197,0,0,270.0*
21,1,0.03543,0.05591,0,0,270.0*
1,1,0.00394,-0.02598,-0.01772*
1,1,0.00394,-0.02598,0.01772*
1,1,0.00394,0.02598,0.01772*
1,1,0.00394,0.02598,-0.01772*
%
%ADD21ROUNDEDRECTD21*%
G04:AMPARAMS|DCode=22|XSize=45.67mil|YSize=71.65mil|CornerRadius=2.28mil|HoleSize=0mil|Usage=FLASHONLY|Rotation=0.000|XOffset=0mil|YOffset=0mil|HoleType=Round|Shape=RoundedRectangle|*
%AMROUNDEDRECTD22*
21,1,0.04567,0.06709,0,0,0.0*
21,1,0.04110,0.07165,0,0,0.0*
1,1,0.00457,0.02055,-0.03354*
1,1,0.00457,-0.02055,-0.03354*
1,1,0.00457,-0.02055,0.03354*
1,1,0.00457,0.02055,0.03354*
%
%ADD22ROUNDEDRECTD22*%
G04:AMPARAMS|DCode=23|XSize=45.67mil|YSize=71.65mil|CornerRadius=2.28mil|HoleSize=0mil|Usage=FLASHONLY|Rotation=90.000|XOffset=0mil|YOffset=0mil|HoleType=Round|Shape=RoundedRectangle|*
%AMROUNDEDRECTD23*
21,1,0.04567,0.06709,0,0,90.0*
21,1,0.04110,0.07165,0,0,90.0*
1,1,0.00457,0.03354,0.02055*
1,1,0.00457,0.03354,-0.02055*
1,1,0.00457,-0.03354,-0.02055*
1,1,0.00457,-0.03354,0.02055*
%
%ADD23ROUNDEDRECTD23*%
%ADD24C,0.01000*%
%ADD27R,0.05905X0.05905*%
%ADD28R,0.05905X0.05905*%
%ADD29C,0.05937*%
G04:AMPARAMS|DCode=30|XSize=59.37mil|YSize=59.37mil|CornerRadius=2.97mil|HoleSize=0mil|Usage=FLASHONLY|Rotation=180.000|XOffset=0mil|YOffset=0mil|HoleType=Round|Shape=RoundedRectangle|*
%AMROUNDEDRECTD30*
21,1,0.05937,0.05343,0,0,180.0*
21,1,0.05343,0.05937,0,0,180.0*
1,1,0.00594,-0.02672,0.02672*
1,1,0.00594,0.02672,0.02672*
1,1,0.00594,0.02672,-0.02672*
1,1,0.00594,-0.02672,-0.02672*
%
%ADD30ROUNDEDRECTD30*%
%ADD31C,0.07087*%
%ADD32C,0.09055*%
G04:AMPARAMS|DCode=33|XSize=66.93mil|YSize=90.55mil|CornerRadius=1.67mil|HoleSize=0mil|Usage=FLASHONLY|Rotation=180.000|XOffset=0mil|YOffset=0mil|HoleType=Round|Shape=RoundedRectangle|*
%AMROUNDEDRECTD33*
21,1,0.06693,0.08721,0,0,180.0*
21,1,0.06358,0.09055,0,0,180.0*
1,1,0.00335,-0.03179,0.04360*
1,1,0.00335,0.03179,0.04360*
1,1,0.00335,0.03179,-0.04360*
1,1,0.00335,-0.03179,-0.04360*
%
%ADD33ROUNDEDRECTD33*%
G04:AMPARAMS|DCode=34|XSize=98.42mil|YSize=78.74mil|CornerRadius=1.97mil|HoleSize=0mil|Usage=FLASHONLY|Rotation=180.000|XOffset=0mil|YOffset=0mil|HoleType=Round|Shape=RoundedRectangle|*
%AMROUNDEDRECTD34*
21,1,0.09842,0.07480,0,0,180.0*
21,1,0.09449,0.07874,0,0,180.0*
1,1,0.00394,-0.04724,0.03740*
1,1,0.00394,0.04724,0.03740*
1,1,0.00394,0.04724,-0.03740*
1,1,0.00394,-0.04724,-0.03740*
%
%ADD34ROUNDEDRECTD34*%
%ADD35C,0.07874*%
%ADD36C,0.02362*%
%ADD37C,0.03937*%
%ADD38C,0.05000*%
%ADD39C,0.03150*%
%ADD40C,0.01181*%
%ADD41C,0.02756*%
%ADD42C,0.04724*%
%ADD43R,0.07008X0.10000*%
G04:AMPARAMS|DCode=44|XSize=141.73mil|YSize=86.61mil|CornerRadius=4.33mil|HoleSize=0mil|Usage=FLASHONLY|Rotation=180.000|XOffset=0mil|YOffset=0mil|HoleType=Round|Shape=RoundedRectangle|*
%AMROUNDEDRECTD44*
21,1,0.14173,0.07795,0,0,180.0*
21,1,0.13307,0.08661,0,0,180.0*
1,1,0.00866,-0.06653,0.03898*
1,1,0.00866,0.06653,0.03898*
1,1,0.00866,0.06653,-0.03898*
1,1,0.00866,-0.06653,-0.03898*
%
%ADD44ROUNDEDRECTD44*%
G04:AMPARAMS|DCode=45|XSize=48mil|YSize=88mil|CornerRadius=2.4mil|HoleSize=0mil|Usage=FLASHONLY|Rotation=180.000|XOffset=0mil|YOffset=0mil|HoleType=Round|Shape=RoundedRectangle|*
%AMROUNDEDRECTD45*
21,1,0.04800,0.08320,0,0,180.0*
21,1,0.04320,0.08800,0,0,180.0*
1,1,0.00480,-0.02160,0.04160*
1,1,0.00480,0.02160,0.04160*
1,1,0.00480,0.02160,-0.04160*
1,1,0.00480,-0.02160,-0.04160*
%
%ADD45ROUNDEDRECTD45*%
G04:AMPARAMS|DCode=46|XSize=58mil|YSize=22mil|CornerRadius=1.1mil|HoleSize=0mil|Usage=FLASHONLY|Rotation=0.000|XOffset=0mil|YOffset=0mil|HoleType=Round|Shape=RoundedRectangle|*
%AMROUNDEDRECTD46*
21,1,0.05800,0.01980,0,0,0.0*
21,1,0.05580,0.02200,0,0,0.0*
1,1,0.00220,0.02790,-0.00990*
1,1,0.00220,-0.02790,-0.00990*
1,1,0.00220,-0.02790,0.00990*
1,1,0.00220,0.02790,0.00990*
%
%ADD46ROUNDEDRECTD46*%
G04:AMPARAMS|DCode=47|XSize=39.37mil|YSize=55.91mil|CornerRadius=1.97mil|HoleSize=0mil|Usage=FLASHONLY|Rotation=180.000|XOffset=0mil|YOffset=0mil|HoleType=Round|Shape=RoundedRectangle|*
%AMROUNDEDRECTD47*
21,1,0.03937,0.05197,0,0,180.0*
21,1,0.03543,0.05591,0,0,180.0*
1,1,0.00394,-0.01772,0.02598*
1,1,0.00394,0.01772,0.02598*
1,1,0.00394,0.01772,-0.02598*
1,1,0.00394,-0.01772,-0.02598*
%
%ADD47ROUNDEDRECTD47*%
G04:AMPARAMS|DCode=48|XSize=78.74mil|YSize=157.48mil|CornerRadius=3.94mil|HoleSize=0mil|Usage=FLASHONLY|Rotation=270.000|XOffset=0mil|YOffset=0mil|HoleType=Round|Shape=RoundedRectangle|*
%AMROUNDEDRECTD48*
21,1,0.07874,0.14961,0,0,270.0*
21,1,0.07087,0.15748,0,0,270.0*
1,1,0.00787,-0.07480,-0.03543*
1,1,0.00787,-0.07480,0.03543*
1,1,0.00787,0.07480,0.03543*
1,1,0.00787,0.07480,-0.03543*
%
%ADD48ROUNDEDRECTD48*%
G04:AMPARAMS|DCode=49|XSize=66.14mil|YSize=67.32mil|CornerRadius=3.31mil|HoleSize=0mil|Usage=FLASHONLY|Rotation=270.000|XOffset=0mil|YOffset=0mil|HoleType=Round|Shape=RoundedRectangle|*
%AMROUNDEDRECTD49*
21,1,0.06614,0.06071,0,0,270.0*
21,1,0.05953,0.06732,0,0,270.0*
1,1,0.00661,-0.03035,-0.02976*
1,1,0.00661,-0.03035,0.02976*
1,1,0.00661,0.03035,0.02976*
1,1,0.00661,0.03035,-0.02976*
%
%ADD49ROUNDEDRECTD49*%
G04:AMPARAMS|DCode=50|XSize=66.93mil|YSize=35.43mil|CornerRadius=3.9mil|HoleSize=0mil|Usage=FLASHONLY|Rotation=90.000|XOffset=0mil|YOffset=0mil|HoleType=Round|Shape=RoundedRectangle|*
%AMROUNDEDRECTD50*
21,1,0.06693,0.02764,0,0,90.0*
21,1,0.05913,0.03543,0,0,90.0*
1,1,0.00779,0.01382,0.02957*
1,1,0.00779,0.01382,-0.02957*
1,1,0.00779,-0.01382,-0.02957*
1,1,0.00779,-0.01382,0.02957*
%
%ADD50ROUNDEDRECTD50*%
G04:AMPARAMS|DCode=51|XSize=66.93mil|YSize=35.43mil|CornerRadius=3.9mil|HoleSize=0mil|Usage=FLASHONLY|Rotation=180.000|XOffset=0mil|YOffset=0mil|HoleType=Round|Shape=RoundedRectangle|*
%AMROUNDEDRECTD51*
21,1,0.06693,0.02764,0,0,180.0*
21,1,0.05913,0.03543,0,0,180.0*
1,1,0.00779,-0.02957,0.01382*
1,1,0.00779,0.02957,0.01382*
1,1,0.00779,0.02957,-0.01382*
1,1,0.00779,-0.02957,-0.01382*
%
%ADD51ROUNDEDRECTD51*%
G04:AMPARAMS|DCode=52|XSize=157.48mil|YSize=157.48mil|CornerRadius=2.36mil|HoleSize=0mil|Usage=FLASHONLY|Rotation=90.000|XOffset=0mil|YOffset=0mil|HoleType=Round|Shape=RoundedRectangle|*
%AMROUNDEDRECTD52*
21,1,0.15748,0.15276,0,0,90.0*
21,1,0.15276,0.15748,0,0,90.0*
1,1,0.00472,0.07638,0.07638*
1,1,0.00472,0.07638,-0.07638*
1,1,0.00472,-0.07638,-0.07638*
1,1,0.00472,-0.07638,0.07638*
%
%ADD52ROUNDEDRECTD52*%
G04:AMPARAMS|DCode=53|XSize=95mil|YSize=89mil|CornerRadius=4.45mil|HoleSize=0mil|Usage=FLASHONLY|Rotation=270.000|XOffset=0mil|YOffset=0mil|HoleType=Round|Shape=RoundedRectangle|*
%AMROUNDEDRECTD53*
21,1,0.09500,0.08010,0,0,270.0*
21,1,0.08610,0.08900,0,0,270.0*
1,1,0.00890,-0.04005,-0.04305*
1,1,0.00890,-0.04005,0.04305*
1,1,0.00890,0.04005,0.04305*
1,1,0.00890,0.04005,-0.04305*
%
%ADD53ROUNDEDRECTD53*%
%ADD54C,0.02362*%
G36*
X210335Y198228D02*
X211990Y196573D01*
X204000Y188583D01*
X203612Y188237D01*
X202771Y187626D01*
X201874Y187099D01*
X200930Y186663D01*
X199948Y186322D01*
X198937Y186079D01*
X197907Y185936D01*
X196869Y185895D01*
X196350Y185925D01*
X196350Y185925D01*
X160138D01*
X159760Y185925D01*
X159018Y186074D01*
X158320Y186366D01*
X157694Y186790D01*
X157428Y187060D01*
X157429Y187060D01*
X154823Y189665D01*
X154465Y189951D01*
X153873Y190651D01*
X153430Y191453D01*
X153151Y192327D01*
X153100Y192782D01*
X153100Y192782D01*
Y198600D01*
X154803Y198600D01*
X155037Y197821D01*
X155620Y196302D01*
X156349Y194848D01*
X157216Y193471D01*
X158214Y192187D01*
X159334Y191007D01*
X160564Y189942D01*
X161892Y189002D01*
X162589Y188583D01*
Y188583D01*
X196063Y188583D01*
X196878Y188623D01*
X198477Y188941D01*
X199983Y189565D01*
X201339Y190471D01*
X201944Y191019D01*
X201944Y191019D01*
X209744Y198819D01*
X210335Y198228D01*
D02*
G37*
G36*
X152778Y184200D02*
X212200Y184200D01*
X212495D01*
X213075Y184085D01*
X213621Y183858D01*
X214112Y183530D01*
X214530Y183112D01*
X214645Y182940D01*
X215194Y181218D01*
X215199Y181199D01*
X215199Y181199D01*
X215200Y181198D01*
X215200Y150800D01*
X215171Y150240D01*
X214834Y149170D01*
X214240Y148219D01*
X213426Y147447D01*
X212446Y146903D01*
X211360Y146622D01*
X210238Y146622D01*
X209152Y146902D01*
X208172Y147446D01*
X207358Y148218D01*
X206764Y149170D01*
X206427Y150239D01*
X206398Y150799D01*
X206398Y150800D01*
X206398Y157396D01*
X206393Y157787D01*
X206269Y158557D01*
X205997Y159289D01*
X205586Y159952D01*
X205053Y160523D01*
X204419Y160978D01*
X203708Y161300D01*
X203708Y161300D01*
X202948Y161477D01*
X202576Y161506D01*
X202559Y161509D01*
X202559Y161509D01*
X193908Y161509D01*
X192770Y161234D01*
X190569Y160439D01*
X188507Y159332D01*
X186629Y157936D01*
X184974Y156281D01*
X183578Y154402D01*
X182470Y152340D01*
X181936Y150861D01*
X181675Y150139D01*
X181401Y149003D01*
X181400Y149001D01*
X181400Y149001D01*
X181400Y149001D01*
X181400D01*
X181400Y148982D01*
X181399Y148401D01*
X181398Y147279D01*
X181397Y147202D01*
X181397Y147111D01*
X181397Y146140D01*
X181397Y146002D01*
X181397Y145963D01*
X181398Y144802D01*
X181399Y144221D01*
X181399Y144203D01*
X181399D01*
Y144203D01*
X181398Y144201D01*
X180836Y142472D01*
X180756Y142352D01*
X180352Y141947D01*
X180236Y141869D01*
X178504Y141300D01*
X178503Y141300D01*
X175325Y141300D01*
X173800Y142291D01*
X173609Y142780D01*
X173120Y143709D01*
X172495Y144552D01*
X171751Y145292D01*
X170903Y145911D01*
X169972Y146395D01*
X169218Y146651D01*
X168978Y146732D01*
X168978Y146732D01*
X167945Y146916D01*
X167429Y146948D01*
X167421Y146949D01*
X167421Y146949D01*
X167421Y146949D01*
X157830Y146949D01*
X156868Y146361D01*
X155075Y144998D01*
X153482Y143404D01*
X152579Y142217D01*
X152119Y141611D01*
X151531Y140650D01*
X151531Y140650D01*
Y140650D01*
X148819D01*
X148819Y185774D01*
X150651Y186493D01*
X152778Y184200D01*
D02*
G37*
G36*
X269092Y199353D02*
X269826Y199049D01*
X270487Y198607D01*
X270767Y198327D01*
X270768Y198327D01*
X270978Y198116D01*
X271309Y197621D01*
X271537Y197070D01*
X271653Y196486D01*
X271653Y196188D01*
X271654Y196188D01*
X271654Y190847D01*
X271654Y190729D01*
X271608Y190500D01*
X271518Y190284D01*
X271388Y190089D01*
X271305Y190006D01*
X271305Y190006D01*
X267200Y186909D01*
X263386Y188976D01*
X264008Y189044D01*
X265201Y189413D01*
X266263Y190070D01*
X267126Y190973D01*
X267734Y192064D01*
X268048Y193273D01*
X268048Y194522D01*
X267734Y195731D01*
X267126Y196822D01*
X266263Y197725D01*
X265201Y198382D01*
X264008Y198751D01*
X263386Y198819D01*
Y198819D01*
X267916Y199508D01*
X268314Y199508D01*
X269092Y199353D01*
D02*
G37*
G36*
X311610Y282824D02*
X312402Y282484D01*
X313110Y281991D01*
X313704Y281366D01*
X314159Y280634D01*
X314458Y279826D01*
X314551Y279214D01*
X314551Y159842D01*
X314551Y158344D01*
X314258Y155362D01*
X313673Y152423D01*
X312803Y149556D01*
X311656Y146788D01*
X310244Y144145D01*
X308579Y141654D01*
X306679Y139338D01*
X304560Y137219D01*
X302243Y135318D01*
X299752Y133653D01*
X297110Y132241D01*
X294341Y131094D01*
X291474Y130224D01*
X288535Y129640D01*
X285553Y129346D01*
X284055D01*
X240057Y129357D01*
X239745Y129748D01*
X239946Y130631D01*
X239949Y130732D01*
X239966Y130832D01*
X239922Y132403D01*
X239899Y132501D01*
X239891Y132601D01*
X239458Y134113D01*
X239412Y134202D01*
X239379Y134298D01*
X238584Y135653D01*
X238517Y135729D01*
X238462Y135813D01*
X238200Y136077D01*
Y136300D01*
X239573Y137673D01*
X296511D01*
Y137657D01*
X298512Y137815D01*
X300465Y138284D01*
X302320Y139052D01*
X304031Y140101D01*
X305558Y141405D01*
X305547Y141416D01*
X306952Y142821D01*
X306963Y142810D01*
X308267Y144337D01*
X309316Y146049D01*
X310085Y147904D01*
X310553Y149856D01*
X310711Y151858D01*
X310695D01*
Y167439D01*
X310706D01*
X310567Y169212D01*
X310151Y170942D01*
X309471Y172585D01*
X308541Y174102D01*
X307386Y175455D01*
X306033Y176610D01*
X304700Y177427D01*
X304700Y189522D01*
X304639Y189936D01*
X304283Y190688D01*
X303664Y191244D01*
X302953Y191493D01*
X302922Y191504D01*
X302922D01*
X302878Y191519D01*
X302463Y191535D01*
X302461Y191535D01*
X302461Y191535D01*
X301968Y191535D01*
X294291Y191535D01*
X294008Y191498D01*
X293496Y191251D01*
X293133Y190813D01*
X293005Y190340D01*
Y183261D01*
X293005Y183261D01*
Y183125D01*
X292901Y182874D01*
X292709Y182683D01*
X292458Y182579D01*
X278937D01*
X278937Y196548D01*
X278937Y196555D01*
X278937Y196569D01*
X278937Y196583D01*
X278938Y196598D01*
X278938Y196605D01*
X278944Y196793D01*
X279097Y197137D01*
X279367Y197398D01*
X279716Y197539D01*
X279904Y197539D01*
X290748Y197539D01*
X290748Y197546D01*
X292998D01*
X294291Y197638D01*
X294721Y197718D01*
X295545Y198002D01*
X296299Y198442D01*
X296952Y199020D01*
X297480Y199714D01*
X297862Y200498D01*
X298084Y201342D01*
X298138Y202213D01*
X298100Y202648D01*
X298100Y202648D01*
X298100Y225175D01*
X298131D01*
Y230599D01*
Y236023D01*
X298100D01*
Y237300D01*
X298100Y237579D01*
X298313Y238093D01*
X298707Y238487D01*
X299221Y238700D01*
X299500D01*
X299500Y238700D01*
X300205Y238700D01*
X300205Y262222D01*
X301805D01*
X302369Y262334D01*
X302847Y262653D01*
X303166Y263131D01*
X303278Y263695D01*
Y266032D01*
X297800D01*
Y269969D01*
X303278D01*
Y272305D01*
X303166Y272869D01*
X302847Y273347D01*
X302369Y273666D01*
X301805Y273778D01*
X298181D01*
X297420Y276626D01*
X296252Y280875D01*
X295767Y282599D01*
X296070Y282997D01*
X310335Y282998D01*
X310766Y282998D01*
X311610Y282824D01*
D02*
G37*
G36*
X139214Y251169D02*
X139498Y250886D01*
X161712Y250886D01*
X161986Y250886D01*
X162493Y250676D01*
X162881Y250288D01*
X163091Y249781D01*
X163091Y249507D01*
X163091Y249507D01*
X163091Y238386D01*
X163005Y237898D01*
X162646Y236974D01*
X162114Y236138D01*
X161429Y235422D01*
X161023Y235138D01*
X161024D01*
X160719Y234834D01*
X160004Y234355D01*
X159209Y234026D01*
X158365Y233858D01*
X157934Y233858D01*
X132600D01*
X127362Y233858D01*
X126985Y233837D01*
X126238Y233951D01*
X125530Y234217D01*
X124892Y234622D01*
X124351Y235149D01*
X123929Y235776D01*
X123646Y236477D01*
X123512Y237221D01*
X123524Y237598D01*
Y237598D01*
X123524Y249311D01*
Y249624D01*
X123586Y249776D01*
Y250179D01*
Y250418D01*
X123770Y250862D01*
X124109Y251201D01*
X124552Y251384D01*
X124792D01*
X124792Y251384D01*
X138414Y251384D01*
X138695D01*
X139214Y251169D01*
D02*
G37*
G36*
X133878Y297412D02*
X135478Y297387D01*
X137078Y297387D01*
X138679Y297412D01*
X139479Y297434D01*
Y297434D01*
X139979Y297297D01*
X140964Y296968D01*
X141929Y296585D01*
X142871Y296148D01*
X143329Y295904D01*
X143329D01*
X143697Y295718D01*
X144425Y295330D01*
X145144Y294926D01*
X145854Y294508D01*
X146205Y294291D01*
X146205Y294291D01*
X147654Y293321D01*
X150388Y291157D01*
X152941Y288781D01*
X155296Y286210D01*
X157438Y283458D01*
X159354Y280545D01*
X161032Y277488D01*
X162460Y274307D01*
X163045Y272665D01*
X163045Y272665D01*
X163050Y272022D01*
X163055Y270735D01*
X163055Y269449D01*
X163050Y268162D01*
X163045Y267519D01*
X163045Y267508D01*
X163029Y267493D01*
X163007Y267493D01*
X162992Y267509D01*
X162992Y267520D01*
X162992Y267520D01*
X162318Y266620D01*
X160677Y265084D01*
X158793Y263856D01*
X156725Y262975D01*
X154535Y262467D01*
X152290Y262348D01*
X150058Y262621D01*
X147908Y263278D01*
X146907Y263788D01*
X146080Y265450D01*
X144193Y268646D01*
X142012Y271649D01*
X139556Y274432D01*
X136848Y276969D01*
X133911Y279238D01*
X130772Y281219D01*
X127459Y282893D01*
X125747Y283610D01*
X125747Y283610D01*
X125405Y283931D01*
X124864Y284699D01*
X124491Y285561D01*
X124300Y286480D01*
X124300Y286949D01*
Y286950D01*
X124300Y295503D01*
Y295887D01*
X124594Y296597D01*
X125137Y297140D01*
X125847Y297434D01*
X126232D01*
X126232Y297434D01*
X127087Y297411D01*
X128799Y297384D01*
X130510Y297384D01*
X132222Y297411D01*
X133078Y297434D01*
Y297434D01*
X133878Y297412D01*
D02*
G37*
G36*
X128937Y327165D02*
X164156D01*
Y327165D01*
X164413Y327165D01*
X164918Y327066D01*
X165394Y326870D01*
X165823Y326586D01*
X166189Y326224D01*
X166478Y325799D01*
X166679Y325325D01*
X166785Y324821D01*
X166788Y324564D01*
X166885Y316207D01*
X166885Y316207D01*
X166889Y315824D01*
X166602Y315112D01*
X166063Y314567D01*
X165355Y314272D01*
X164972D01*
X154823Y314271D01*
X154823Y314271D01*
X153797Y314246D01*
X151762Y314003D01*
X149773Y313508D01*
X147861Y312769D01*
X146056Y311797D01*
X144386Y310607D01*
X142879Y309219D01*
X141556Y307653D01*
X140970Y306811D01*
X140970Y306811D01*
X140761Y306489D01*
X140198Y305968D01*
X139523Y305602D01*
X138780Y305413D01*
X128051D01*
X127703Y305413D01*
X127059Y305680D01*
X126567Y306173D01*
X126300Y306816D01*
X126300Y307165D01*
X126300Y324528D01*
Y324528D01*
X126300Y324788D01*
X126401Y325297D01*
X126600Y325777D01*
X126889Y326209D01*
X127256Y326577D01*
X127688Y326865D01*
X128168Y327064D01*
X128677Y327165D01*
X128937Y327165D01*
D02*
G37*
G36*
X234154Y259941D02*
Y259589D01*
X233884Y258937D01*
X233385Y258439D01*
X232734Y258169D01*
X232382D01*
X224902Y258169D01*
X224594Y258139D01*
X224026Y257904D01*
X223592Y257470D01*
X223357Y256902D01*
X223327Y256594D01*
Y256594D01*
X223327Y253543D01*
X223312Y253697D01*
X223194Y253981D01*
X222977Y254198D01*
X222693Y254316D01*
X222539Y254331D01*
X222539Y254331D01*
X217520Y252362D01*
X217189Y252559D01*
X216586Y253034D01*
X216050Y253585D01*
X215591Y254202D01*
X215217Y254873D01*
X214934Y255587D01*
X214747Y256333D01*
X214659Y257096D01*
X214665Y257480D01*
X214665Y257480D01*
X214663Y257497D01*
X214657Y257531D01*
X214650Y257564D01*
X214642Y257598D01*
X214637Y257614D01*
X214637D01*
X214344Y258692D01*
X214128Y260915D01*
X214287Y263143D01*
X214816Y265312D01*
X215259Y266338D01*
X215479Y266805D01*
X216144Y267597D01*
X216989Y268193D01*
X217958Y268552D01*
X218473Y268602D01*
X218473Y268602D01*
X234154Y268602D01*
Y259941D01*
D02*
G37*
G36*
X190059Y249803D02*
X180709Y249803D01*
X180346D01*
X179677Y250080D01*
X179165Y250593D01*
X178888Y251262D01*
X178888Y251624D01*
X178888Y256742D01*
X178888Y257085D01*
X179150Y257718D01*
X179634Y258202D01*
X180268Y258465D01*
X180610Y258465D01*
X190059Y258465D01*
Y249803D01*
D02*
G37*
%LPC*%
G36*
X184638Y181898D02*
X178969D01*
Y174969D01*
X185898D01*
Y180638D01*
X185802Y181120D01*
X185529Y181529D01*
X185120Y181802D01*
X184638Y181898D01*
D02*
G37*
G36*
X175031Y171031D02*
X168102D01*
Y165362D01*
X168198Y164880D01*
X168471Y164471D01*
X168880Y164198D01*
X169362Y164102D01*
X175031D01*
Y171031D01*
D02*
G37*
G36*
X185898D02*
X178969D01*
Y164102D01*
X184638D01*
X185120Y164198D01*
X185529Y164471D01*
X185802Y164880D01*
X185898Y165362D01*
Y171031D01*
D02*
G37*
G36*
X175031Y181898D02*
X169362D01*
X168880Y181802D01*
X168471Y181529D01*
X168198Y181120D01*
X168102Y180638D01*
Y174969D01*
X175031D01*
Y181898D01*
D02*
G37*
G36*
X311455Y218278D02*
X309418D01*
Y214469D01*
X312928D01*
Y216805D01*
X312816Y217369D01*
X312496Y217847D01*
X312018Y218166D01*
X311455Y218278D01*
D02*
G37*
G36*
X303524Y228631D02*
X302068D01*
Y225175D01*
X302260D01*
X302744Y225271D01*
X303154Y225545D01*
X303428Y225955D01*
X303524Y226439D01*
Y228631D01*
D02*
G37*
G36*
X302260Y236023D02*
X302068D01*
Y232568D01*
X303524D01*
Y234759D01*
X303428Y235243D01*
X303154Y235653D01*
X302744Y235927D01*
X302260Y236023D01*
D02*
G37*
G36*
X305481Y218278D02*
X303445D01*
X302881Y218166D01*
X302403Y217847D01*
X302083Y217369D01*
X301971Y216805D01*
Y214469D01*
X305481D01*
Y218278D01*
D02*
G37*
G36*
X278937Y196548D02*
Y196548D01*
D01*
Y196548D01*
D02*
G37*
G36*
X305481Y210531D02*
X301971D01*
Y208195D01*
X302083Y207631D01*
X302403Y207153D01*
X302881Y206834D01*
X303445Y206722D01*
X305481D01*
Y210531D01*
D02*
G37*
G36*
X312928D02*
X309418D01*
Y206722D01*
X311455D01*
X312018Y206834D01*
X312496Y207153D01*
X312816Y207631D01*
X312928Y208195D01*
Y210531D01*
D02*
G37*
%LPD*%
D10*
X213433Y143701D02*
X212453Y143646D01*
X211486Y143481D01*
X210542Y143210D01*
X209636Y142834D01*
X208777Y142359D01*
X207976Y141791D01*
X207244Y141137D01*
X206591Y140406D01*
X206023Y139605D01*
X205548Y138746D01*
X205172Y137839D01*
X204901Y136896D01*
X204736Y135929D01*
X204681Y134949D01*
X211122Y143405D02*
X210115Y143326D01*
X209132Y143090D01*
X208198Y142703D01*
X207336Y142175D01*
X206568Y141519D01*
X205911Y140751D01*
X205383Y139889D01*
X204996Y138955D01*
X204760Y137972D01*
X204681Y136965D01*
X294770Y143701D02*
X295750Y143749D01*
X296721Y143893D01*
X297673Y144131D01*
X298597Y144462D01*
X299484Y144882D01*
X300325Y145386D01*
X301114Y145971D01*
X301841Y146630D01*
X302500Y147357D01*
X303084Y148145D01*
X303589Y148987D01*
X304009Y149874D01*
X304339Y150798D01*
X304578Y151750D01*
X304721Y152721D01*
X304770Y153701D01*
Y160585D02*
X304666Y161638D01*
X304359Y162651D01*
X303860Y163584D01*
X303188Y164403D01*
X302370Y165074D01*
X301436Y165573D01*
X300424Y165881D01*
X299370Y165984D01*
X290433Y147047D02*
X291434Y147103D01*
X292422Y147271D01*
X293385Y147549D01*
X294311Y147932D01*
X295188Y148417D01*
X296005Y148997D01*
X296753Y149665D01*
X297420Y150412D01*
X298000Y151230D01*
X298485Y152107D01*
X298869Y153033D01*
X299146Y153996D01*
X299314Y154984D01*
X299370Y155984D01*
X210671Y139087D02*
X210132Y138297D01*
X209795Y137402D01*
X209681Y136453D01*
X213681Y140453D02*
X212561Y140293D01*
X211530Y139825D01*
X210671Y139087D01*
X296511Y140453D02*
X297491Y140501D01*
X298462Y140645D01*
X299413Y140883D01*
X300337Y141214D01*
X301225Y141633D01*
X302066Y142138D01*
X302855Y142723D01*
X303582Y143382D01*
X304987Y144787D02*
X305645Y145514D01*
X306230Y146302D01*
X306735Y147144D01*
X307154Y148031D01*
X307485Y148955D01*
X307723Y149907D01*
X307867Y150877D01*
X307915Y151858D01*
Y167439D02*
X307853Y168469D01*
X307667Y169484D01*
X307360Y170469D01*
X306937Y171410D01*
X306403Y172293D01*
X305766Y173106D01*
X305037Y173835D01*
X304224Y174472D01*
X303341Y175005D01*
X302400Y175429D01*
X301415Y175736D01*
X300400Y175922D01*
X299370Y175984D01*
X204681Y134949D02*
Y136965D01*
X213433Y143701D02*
X294770D01*
X304770Y153701D02*
Y160585D01*
X222736Y147047D02*
X290433D01*
X209681Y134949D02*
Y136453D01*
X213681Y140453D02*
X296511D01*
X303582Y143382D02*
X304987Y144787D01*
X307915Y151858D02*
Y167439D01*
D11*
X154681Y198583D02*
X154729Y197602D01*
X154873Y196632D01*
X155112Y195680D01*
X155442Y194756D01*
X155862Y193869D01*
X156366Y193027D01*
X156951Y192239D01*
X157610Y191512D01*
X158337Y190853D01*
X159125Y190268D01*
X159967Y189763D01*
X160854Y189344D01*
X161778Y189013D01*
X162730Y188775D01*
X163701Y188631D01*
X164681Y188583D01*
X224317Y215053D02*
X224044Y216056D01*
X223669Y217025D01*
X223195Y217950D01*
X222627Y218820D01*
X221973Y219627D01*
X221238Y220362D01*
X220431Y221017D01*
X219561Y221584D01*
X218636Y222058D01*
X217667Y222433D01*
X216664Y222706D01*
X237811Y191477D02*
X237498Y192296D01*
X237113Y193084D01*
X236661Y193835D01*
X236145Y194544D01*
X248362Y263362D02*
X249325Y263446D01*
X250259Y263697D01*
X251135Y264105D01*
X251927Y264660D01*
X252610Y265343D01*
X253165Y266135D01*
X253573Y267011D01*
X253823Y267945D01*
X253908Y268908D01*
X208700Y261572D02*
X208652Y262552D01*
X208508Y263523D01*
X208269Y264475D01*
X207939Y265399D01*
X207519Y266286D01*
X207015Y267128D01*
X206430Y267916D01*
X205771Y268643D01*
X224544Y212933D02*
X224574Y211957D01*
X224662Y210984D01*
X224809Y210018D01*
X225014Y209063D01*
X225276Y208121D01*
X225595Y207198D01*
X225969Y206295D01*
X226397Y205417D01*
X226877Y204566D01*
X227407Y203746D01*
X227986Y202958D01*
X228612Y202208D01*
X229281Y201497D01*
X224544Y212933D02*
X224511Y213741D01*
X224414Y214543D01*
X216664Y222706D02*
X215610Y222876D01*
X214544Y222933D01*
X209498Y227979D02*
X209595Y226994D01*
X209882Y226048D01*
X210349Y225176D01*
X210976Y224411D01*
X211741Y223783D01*
X212613Y223317D01*
X213560Y223030D01*
X214544Y222933D01*
X238327Y188309D02*
X238269Y189382D01*
X238097Y190442D01*
X237812Y191477D01*
X272016Y194634D02*
X271933Y195583D01*
X271686Y196503D01*
X271284Y197366D01*
X270737Y198146D01*
X270064Y198820D01*
X269284Y199366D01*
X268420Y199769D01*
X267500Y200015D01*
X266551Y200098D01*
X263526Y208465D02*
X264615Y208650D01*
X265580Y209186D01*
X266314Y210011D01*
X266732Y211033D01*
X270093Y214394D02*
X269055Y214229D01*
X268118Y213752D01*
X267374Y213008D01*
X266897Y212071D01*
X266732Y211033D01*
X269931Y231401D02*
X269117Y231862D01*
X268263Y232244D01*
X267377Y232545D01*
X266467Y232762D01*
X265541Y232893D01*
X264606Y232937D01*
X269931Y231401D02*
X269020Y231854D01*
X268066Y232211D01*
X267082Y232469D01*
X266076Y232625D01*
X265059Y232677D01*
X275000Y222736D02*
X274954Y223691D01*
X274816Y224638D01*
X274589Y225567D01*
X274273Y226469D01*
X273871Y227337D01*
X273388Y228163D01*
X272829Y228938D01*
X272197Y229656D01*
X271499Y230309D01*
X270741Y230893D01*
X269931Y231401D01*
X245109Y182374D02*
X245151Y181416D01*
X245276Y180466D01*
X245484Y179531D01*
X245772Y178617D01*
X246139Y177731D01*
X246581Y176881D01*
X247096Y176073D01*
X247679Y175313D01*
X248327Y174606D01*
X236819Y210507D02*
X236848Y209481D01*
X236934Y208458D01*
X237078Y207441D01*
X237278Y206434D01*
X237535Y205440D01*
X237846Y204462D01*
X238213Y203502D01*
X238632Y202565D01*
X239103Y201653D01*
X239625Y200769D01*
X240195Y199915D01*
X240813Y199095D01*
X241475Y198310D01*
X242180Y197564D01*
X245109Y190493D02*
X245061Y191473D01*
X244917Y192444D01*
X244679Y193396D01*
X244348Y194320D01*
X243929Y195207D01*
X243424Y196049D01*
X242839Y196837D01*
X242180Y197564D01*
X256575Y214173D02*
X257538Y214236D01*
X258485Y214424D01*
X259398Y214735D01*
X260263Y215161D01*
X261066Y215697D01*
X261791Y216334D01*
X262427Y217059D01*
X262963Y217861D01*
X263390Y218726D01*
X263700Y219640D01*
X263888Y220586D01*
X263951Y221549D01*
X236819Y214173D02*
X236766Y215129D01*
X236605Y216072D01*
X236340Y216992D01*
X235974Y217876D01*
X235511Y218714D01*
X234958Y219494D01*
X234320Y220208D01*
X164692Y188583D02*
X195858D01*
X198900D01*
X154681Y198583D02*
Y202099D01*
Y205815D02*
Y211461D01*
X221112Y233415D02*
X234320Y220208D01*
X243000Y263362D02*
X248362D01*
X154528Y210728D02*
Y211614D01*
X199114Y275300D02*
Y277362D01*
Y275300D02*
X205771Y268643D01*
X229281Y201497D02*
X235398Y195380D01*
X209498Y227979D02*
Y233415D01*
X238327Y158169D02*
Y161417D01*
Y174606D02*
Y188309D01*
X248031Y200098D02*
X266551D01*
X247638Y208465D02*
X263526D01*
X275000Y214000D02*
Y222736D01*
X270093Y214394D02*
X274606D01*
X236819Y210507D02*
Y214173D01*
X245109Y182374D02*
Y190493D01*
X236819Y214173D02*
X256575D01*
D12*
X201305Y144488D02*
X200615Y143648D01*
X200103Y142690D01*
X199788Y141650D01*
X199681Y140568D01*
X194681Y156504D02*
X193701Y156456D01*
X192730Y156312D01*
X191778Y156073D01*
X190854Y155743D01*
X189967Y155323D01*
X189125Y154818D01*
X188337Y154234D01*
X187610Y153575D01*
X186951Y152848D01*
X186366Y152059D01*
X185862Y151218D01*
X185442Y150330D01*
X185112Y149407D01*
X184873Y148455D01*
X184729Y147484D01*
X184681Y146504D01*
X199681Y150492D02*
X198701Y150444D01*
X197730Y150300D01*
X196778Y150062D01*
X195854Y149731D01*
X194967Y149311D01*
X194125Y148807D01*
X193337Y148222D01*
X192610Y147563D01*
X191951Y146836D01*
X191366Y146048D01*
X190862Y145206D01*
X190442Y144319D01*
X190112Y143395D01*
X189873Y142443D01*
X189729Y141472D01*
X189681Y140492D01*
X199681Y201443D02*
X199820Y200377D01*
X200227Y199382D01*
X200876Y198525D01*
X214681Y134949D02*
X214886Y134744D01*
X195607Y239587D02*
X196427Y240075D01*
X197172Y240671D01*
X197828Y241364D01*
X198383Y242140D01*
X198826Y242985D01*
X199148Y243882D01*
X199344Y244816D01*
X199409Y245768D01*
X184999Y277799D02*
X185000Y277800D01*
X200130Y248130D02*
X199735Y247396D01*
X199492Y246598D01*
X199409Y245768D01*
X201279Y249279D02*
X200649Y248760D01*
X200130Y248130D01*
X224414Y214543D02*
X224317Y215053D01*
X209681Y210319D02*
X209564Y211361D01*
X209218Y212350D01*
X208660Y213238D01*
X207919Y213979D01*
X207031Y214536D01*
X206042Y214883D01*
X205000Y215000D01*
X229614Y184953D02*
X228887Y185612D01*
X228099Y186197D01*
X227257Y186701D01*
X226370Y187121D01*
X225446Y187451D01*
X224494Y187690D01*
X223523Y187834D01*
X222543Y187882D01*
X200876Y198525D02*
X200900Y198500D01*
X199213Y260728D02*
X199141Y261729D01*
X198928Y262709D01*
X198577Y263649D01*
X198097Y264529D01*
X197496Y265332D01*
X196786Y266041D01*
X195983Y266642D01*
X195103Y267123D01*
X194163Y267473D01*
X193183Y267687D01*
X192183Y267758D01*
X199213Y260728D02*
X199300Y259734D01*
X199558Y258769D01*
X199980Y257864D01*
X200553Y257046D01*
X201259Y256340D01*
X202077Y255767D01*
X202982Y255346D01*
X203946Y255087D01*
X204941Y255000D01*
X192486Y238844D02*
X193326Y238895D01*
X194154Y239048D01*
X194957Y239300D01*
X203642Y250000D02*
X202812Y249918D01*
X202014Y249674D01*
X201279Y249279D01*
X239929Y247071D02*
X239202Y247730D01*
X238414Y248315D01*
X237572Y248819D01*
X236685Y249239D01*
X235761Y249569D01*
X234809Y249808D01*
X233838Y249952D01*
X232858Y250000D01*
X198260Y278217D02*
X198133Y279148D01*
X197887Y280056D01*
X197526Y280924D01*
X197055Y281738D01*
X196483Y282485D01*
X195819Y283151D01*
X195075Y283726D01*
X194263Y284200D01*
X193225Y284622D01*
X192135Y284879D01*
X191019Y284965D01*
X198278Y277706D02*
X198260Y278217D01*
X236145Y194544D02*
X235398Y195380D01*
X238327Y164626D02*
X238484Y163634D01*
X238940Y162740D01*
X239649Y162030D01*
X240544Y161574D01*
X241535Y161417D01*
X241535D02*
X241570Y160590D01*
X241673Y159768D01*
X164681Y138370D02*
X164516Y139409D01*
X164039Y140346D01*
X163295Y141090D01*
X162358Y141568D01*
X161319Y141732D01*
X266732Y211033D02*
X266811Y211750D01*
X221112Y251388D02*
X220960Y252425D01*
X220517Y253375D01*
X219819Y254157D01*
X218926Y254707D01*
X217913Y254976D01*
X176480Y276900D02*
X176752Y277013D01*
X217913Y254976D02*
X217500Y255000D01*
X257948Y278895D02*
X257696Y279000D01*
X199681Y134949D02*
Y140568D01*
X184681Y195976D02*
Y205815D01*
Y134949D02*
Y146504D01*
X194681Y156504D02*
X201138D01*
X189681Y134949D02*
Y140492D01*
X199681Y150492D02*
X200787D01*
X154692Y202099D02*
Y205815D01*
X199681Y201443D02*
Y205815D01*
X214886Y134744D02*
X221654D01*
X159681Y197917D02*
Y205815D01*
X220657Y152953D02*
X231299D01*
X230900Y255000D02*
X242000D01*
X270079Y157480D02*
X279626D01*
X214681Y205815D02*
Y214681D01*
X209681Y205815D02*
Y210319D01*
X204941Y255000D02*
X208700D01*
X189750Y238844D02*
X192486D01*
X203642Y250000D02*
X208700D01*
X253000Y222905D02*
X253984D01*
X230900Y250000D02*
X232858D01*
X239929Y247071D02*
X243000Y244000D01*
X217913Y255413D02*
Y256693D01*
X208700Y260000D02*
Y261572D01*
X198260Y278217D02*
X199114Y277362D01*
X177854Y284965D02*
X191019D01*
X164681Y134949D02*
Y138370D01*
X169681Y134949D02*
Y141146D01*
X189681Y205815D02*
Y212189D01*
X194681Y205815D02*
Y211709D01*
X263984Y232937D02*
X264606D01*
X217500Y255000D02*
X217913Y255413D01*
D13*
X289200Y203713D02*
X289469Y203445D01*
X263984Y244000D02*
X263004Y243952D01*
X262033Y243808D01*
X261081Y243569D01*
X260157Y243239D01*
X259270Y242819D01*
X258429Y242315D01*
X257640Y241730D01*
X256913Y241071D01*
X256254Y240344D01*
X255670Y239556D01*
X255165Y238714D01*
X254746Y237827D01*
X254415Y236903D01*
X254176Y235951D01*
X254032Y234980D01*
X253984Y234000D01*
X289469Y211811D02*
X290551Y212260D01*
X291000Y213342D01*
X244759Y227241D02*
X245312Y226511D01*
X245929Y225834D01*
X246605Y225217D01*
X247335Y224665D01*
X263984Y185937D02*
X264952Y185996D01*
X265906Y186170D01*
X266832Y186459D01*
X267717Y186857D01*
X268547Y187359D01*
X269310Y187957D01*
X269996Y188643D01*
X270594Y189406D01*
X271096Y190236D01*
X271494Y191121D01*
X271782Y192046D01*
X271957Y193000D01*
X272016Y193968D01*
X226858Y266638D02*
X227838Y266686D01*
X228809Y266830D01*
X229761Y267068D01*
X230685Y267399D01*
X231572Y267819D01*
X232414Y268323D01*
X233202Y268908D01*
X233929Y269567D01*
X219094Y192717D02*
X218115Y192674D01*
X217143Y192546D01*
X216186Y192334D01*
X215251Y192039D01*
X214346Y191664D01*
X213476Y191211D01*
X212650Y190684D01*
X211872Y190088D01*
X211149Y189426D01*
X210487Y188703D01*
X209890Y187925D01*
X209364Y187098D01*
X208911Y186229D01*
X208536Y185323D01*
X208241Y184388D01*
X208029Y183431D01*
X207901Y182460D01*
X207858Y181480D01*
X185505Y266000D02*
X186444Y266074D01*
X187360Y266294D01*
X188230Y266654D01*
X189033Y267146D01*
X189750Y267758D01*
X243000Y232906D02*
X243050Y231904D01*
X243201Y230912D01*
X243450Y229940D01*
X243795Y228998D01*
X244233Y228095D01*
X244759Y227241D01*
X247335Y224665D02*
X248190Y224138D01*
X249092Y223701D01*
X250034Y223355D01*
X251006Y223106D01*
X251998Y222956D01*
X253000Y222905D01*
X176752Y308213D02*
X176352Y307247D01*
X248721Y172178D02*
X249050Y171352D01*
X249474Y170570D01*
X249984Y169842D01*
X250576Y169177D01*
X192000Y222051D02*
X191898Y223085D01*
X191597Y224079D01*
X191107Y224995D01*
X190448Y225798D01*
X189645Y226457D01*
X188729Y226947D01*
X187735Y227249D01*
X186701Y227350D01*
X177216Y320342D02*
X176752Y319221D01*
X169539Y227350D02*
X168566Y227287D01*
X167608Y227096D01*
X166684Y226782D01*
X165809Y226351D01*
X164998Y225809D01*
X164264Y225165D01*
X163620Y224431D01*
X163078Y223620D01*
X162647Y222745D01*
X162333Y221821D01*
X162143Y220864D01*
X162079Y219890D01*
X277264Y264074D02*
X276705Y263202D01*
X276240Y262278D01*
X275873Y261309D01*
X275607Y260309D01*
X275447Y259286D01*
X275394Y258252D01*
Y248532D02*
X275441Y247563D01*
X275582Y246603D01*
X275815Y245661D01*
X276138Y244747D01*
X276548Y243867D01*
X277042Y243032D01*
X277614Y242249D01*
X278259Y241525D01*
X278316Y241467D01*
X281900Y233741D02*
X281852Y234721D01*
X281708Y235692D01*
X281469Y236644D01*
X281139Y237568D01*
X280719Y238455D01*
X280215Y239297D01*
X279630Y240085D01*
X278971Y240812D01*
X278323Y265323D02*
X277768Y264720D01*
X277264Y264074D01*
X177319Y328398D02*
X176724Y327803D01*
X150840Y178326D02*
X151343Y177479D01*
X151927Y176685D01*
X152587Y175952D01*
X153315Y175288D01*
X154105Y174699D01*
X154949Y174191D01*
X155839Y173768D01*
X156766Y173434D01*
X157722Y173194D01*
X158697Y173049D01*
X159681Y173000D01*
X290641Y194634D02*
X291240Y194882D01*
X279378Y202260D02*
X279268Y203234D01*
X278944Y204159D01*
X278423Y204990D01*
X277730Y205683D01*
X276900Y206204D01*
X275974Y206528D01*
X275000Y206638D01*
X241673Y159768D02*
X241734Y158769D01*
X241914Y157784D01*
X242212Y156828D01*
X242623Y155915D01*
X243141Y155058D01*
X243759Y154270D01*
X244466Y153562D01*
X245255Y152944D01*
X246112Y152426D01*
X247025Y152015D01*
X247981Y151717D01*
X248966Y151537D01*
X249965Y151476D01*
X264075D02*
X265117Y151568D01*
X266128Y151838D01*
X267077Y152281D01*
X267934Y152881D01*
X268674Y153621D01*
X269274Y154478D01*
X269717Y155427D01*
X269988Y156438D01*
X270079Y157480D01*
X192000Y326193D02*
X191705Y327295D01*
X190898Y328102D01*
X189795Y328398D01*
X224785Y260100D02*
X223851Y260008D01*
X222954Y259736D01*
X222127Y259294D01*
X221402Y258699D01*
X220806Y257973D01*
X220364Y257146D01*
X220092Y256248D01*
X220000Y255315D01*
X248327Y174606D02*
X248426Y173376D01*
X248721Y172178D01*
X261761Y164842D02*
X260702Y164675D01*
X259747Y164188D01*
X258990Y163431D01*
X258503Y162476D01*
X258335Y161417D01*
X230899Y260100D02*
X230819Y261123D01*
X230579Y262120D01*
X230187Y263068D01*
X229651Y263943D01*
X228984Y264723D01*
X228204Y265389D01*
X227330Y265925D01*
X226382Y266318D01*
X225384Y266557D01*
X224361Y266638D01*
X247504Y279000D02*
X246524Y278952D01*
X245553Y278808D01*
X244601Y278569D01*
X243677Y278239D01*
X242790Y277819D01*
X241949Y277315D01*
X241160Y276730D01*
X240433Y276071D01*
X263984Y271736D02*
X263913Y272750D01*
X263701Y273745D01*
X263352Y274700D01*
X262873Y275597D01*
X262274Y276418D01*
X261566Y277148D01*
X260763Y277771D01*
X259880Y278276D01*
X258936Y278654D01*
X257948Y278895D01*
X289200Y203713D02*
Y213000D01*
X253984Y232937D02*
Y234000D01*
X263984Y244000D02*
X265941D01*
X176352Y285340D02*
Y292638D01*
X253937Y192913D02*
X253984Y192866D01*
X189750Y256144D02*
X189764Y252067D01*
X291000Y230599D02*
Y244000D01*
Y213342D02*
Y230599D01*
X162300Y240275D02*
X170000D01*
X233732Y269468D02*
X240236Y275973D01*
X279378Y184055D02*
Y194634D01*
X306233Y213717D02*
X307450Y212500D01*
X177362Y266000D02*
X185505D01*
X178000Y239300D02*
X194957D01*
X243000Y232906D02*
Y236638D01*
X176352Y300000D02*
Y307247D01*
X177000Y173000D02*
X178642D01*
X191929D01*
X270079Y164842D02*
X279626D01*
X192000Y219890D02*
Y220177D01*
Y222051D01*
X176752Y315575D02*
Y319221D01*
X263886Y298091D02*
Y299827D01*
X221112Y248622D02*
X221389Y254827D01*
X221465Y256535D02*
X221555Y258563D01*
X169539Y227350D02*
X171898D01*
X278316Y241467D02*
X278971Y240812D01*
X281900Y230599D02*
Y233741D01*
X278150Y241634D02*
X278316Y241467D01*
X275394Y248532D02*
Y258252D01*
X278323Y265323D02*
X281000Y268000D01*
X192000Y318602D02*
X192477Y319079D01*
X177319Y328398D02*
X182433D01*
X170472Y173000D02*
X174705D01*
X177000D01*
X158892Y265700D02*
X170000D01*
X181398Y276900D02*
X184800D01*
X149681Y134949D02*
Y147638D01*
Y159449D01*
Y167323D02*
Y190945D01*
Y159449D02*
Y167323D01*
X159681Y173000D02*
X170472D01*
X149681Y190945D02*
Y198819D01*
Y205389D01*
X268327Y174602D02*
X269924D01*
X289862Y194634D02*
X290641D01*
X279378D02*
Y202260D01*
X221112Y233415D02*
Y234399D01*
Y248622D01*
X209487Y232332D02*
Y243917D01*
X249965Y151476D02*
X264075D01*
X238327Y164626D02*
Y174606D01*
Y161417D02*
Y164626D01*
X192000Y318602D02*
Y326193D01*
X217913Y254587D02*
Y254976D01*
Y255413D01*
X221112Y248622D02*
Y251388D01*
X217913Y254587D02*
X221112Y251388D01*
X221389Y254827D02*
X221465Y256535D01*
X176480Y276900D02*
X181398D01*
X176412Y276969D02*
X176480Y276900D01*
X220000Y255000D02*
Y255315D01*
X261761Y164842D02*
X270079D01*
X250576Y169177D02*
X258335Y161417D01*
X224785Y260100D02*
X230899D01*
X247504Y279000D02*
X257696D01*
D14*
X308800Y194100D02*
X308600Y194300D01*
X289862Y194634D02*
X290196Y194300D01*
X253984Y185937D02*
Y192866D01*
X287111Y188944D02*
X289862Y191043D01*
Y194634D01*
Y185984D02*
Y191043D01*
X290641Y194634D02*
X310000D01*
D15*
X258819Y315354D02*
X257839Y315306D01*
X256868Y315162D01*
X255916Y314924D01*
X254992Y314593D01*
X254105Y314174D01*
X253263Y313669D01*
X252475Y313084D01*
X251748Y312425D01*
X251089Y311698D01*
X250504Y310910D01*
X250000Y310068D01*
X249580Y309181D01*
X249250Y308257D01*
X249011Y307305D01*
X248867Y306334D01*
X248819Y305354D01*
X303256Y297779D02*
X303208Y298759D01*
X303064Y299730D01*
X302825Y300682D01*
X302495Y301606D01*
X302075Y302493D01*
X301571Y303335D01*
X300986Y304123D01*
X300327Y304850D01*
X297800Y276700D02*
X297731Y277668D01*
X297524Y278616D01*
X297185Y279525D01*
X296721Y280376D01*
X296139Y281153D01*
X295453Y281839D01*
X294676Y282420D01*
X293825Y282886D01*
X292916Y283225D01*
X291968Y283431D01*
X291000Y283500D01*
Y244000D02*
Y255000D01*
X132000Y291000D02*
X155000Y266000D01*
X281000Y268000D02*
Y283500D01*
X209823Y315354D02*
X229823D01*
X269823D02*
X289823D01*
X248819Y301279D02*
Y305354D01*
X258819Y315354D02*
X269823D01*
X303256Y291165D02*
Y297779D01*
X289823Y315354D02*
X300327Y304850D01*
X268327Y174606D02*
X287111Y188944D01*
X297800Y268000D02*
Y276700D01*
D16*
X131800Y245400D02*
D03*
Y265085D02*
D03*
X162079Y298917D02*
D03*
X192000D02*
D03*
Y318602D02*
D03*
D17*
X230610Y184646D02*
D03*
Y152953D02*
D03*
X205000Y215000D02*
D03*
X215000D02*
D03*
X238819Y301279D02*
D03*
X289370Y175984D02*
D03*
Y165984D02*
D03*
Y155984D02*
D03*
X299370Y185984D02*
D03*
Y175984D02*
D03*
Y165984D02*
D03*
Y155984D02*
D03*
D21*
X176352Y292638D02*
D03*
Y300000D02*
D03*
X176752Y315575D02*
D03*
Y308213D02*
D03*
X176724Y320441D02*
D03*
Y327803D02*
D03*
X176752Y284375D02*
D03*
Y277013D02*
D03*
X270079Y164842D02*
D03*
Y157480D02*
D03*
X279626Y164842D02*
D03*
Y157480D02*
D03*
X224000Y266638D02*
D03*
Y274000D02*
D03*
X275000Y214000D02*
D03*
Y206638D02*
D03*
X243000Y263362D02*
D03*
Y256000D02*
D03*
Y236638D02*
D03*
Y244000D02*
D03*
D22*
X198278Y277706D02*
D03*
X186664D02*
D03*
X221112Y234399D02*
D03*
X209498D02*
D03*
D23*
X189750Y267758D02*
D03*
Y256144D02*
D03*
X189764Y252067D02*
D03*
Y240453D02*
D03*
D24*
X253908Y268908D02*
X253984Y269905D01*
X189681Y212189D02*
X189567Y212303D01*
X195079Y212106D02*
X194681Y211709D01*
X132000Y287500D02*
Y291000D01*
X242000Y255000D02*
X243000Y256000D01*
X253937Y185984D02*
X253984Y185937D01*
X176352Y307247D02*
Y308638D01*
X156500Y267500D02*
X158000Y266000D01*
X267758Y174602D02*
X268327D01*
X272016Y193968D02*
Y194634D01*
X279626Y164902D02*
X280610D01*
X263984Y269905D02*
Y271736D01*
D27*
X248819Y301279D02*
D03*
D28*
X289370Y185984D02*
D03*
D29*
X238327Y174606D02*
D03*
X248327D02*
D03*
X258327D02*
D03*
D30*
X268327D02*
D03*
D31*
X303256Y291165D02*
D03*
X263886Y299827D02*
D03*
D32*
X131800Y245400D02*
D03*
Y265085D02*
D03*
X132000Y291000D02*
D03*
Y310685D02*
D03*
X209823Y315354D02*
D03*
X229823D02*
D03*
X289823D02*
D03*
X269823D02*
D03*
D33*
X291000Y283500D02*
D03*
X281000D02*
D03*
D34*
X230213Y284000D02*
D03*
X211787D02*
D03*
D35*
X192000Y298917D02*
D03*
X162079D02*
D03*
X192000Y318602D02*
D03*
X162079D02*
D03*
Y220177D02*
D03*
X192000D02*
D03*
D36*
X149606Y198819D02*
D03*
Y194882D02*
D03*
Y190945D02*
D03*
Y187008D02*
D03*
Y143701D02*
D03*
X149681Y147638D02*
D03*
X149606Y183071D02*
D03*
Y179134D02*
D03*
Y175197D02*
D03*
Y171260D02*
D03*
Y167323D02*
D03*
Y163386D02*
D03*
Y159449D02*
D03*
Y155512D02*
D03*
Y151575D02*
D03*
X178642Y176969D02*
D03*
X170472D02*
D03*
X178642Y173000D02*
D03*
X170472D02*
D03*
X178642Y169095D02*
D03*
X170472D02*
D03*
X208760Y173721D02*
D03*
Y169752D02*
D03*
Y165847D02*
D03*
X212598Y169752D02*
D03*
Y173721D02*
D03*
X174705Y169095D02*
D03*
Y173000D02*
D03*
Y176969D02*
D03*
D37*
X159941Y197146D02*
D03*
X169193Y141634D02*
D03*
X221654Y134744D02*
D03*
X195079Y212106D02*
D03*
X189567Y212303D02*
D03*
X247638Y208465D02*
D03*
X248031Y200098D02*
D03*
X161319Y141732D02*
D03*
X200787Y198524D02*
D03*
X184055Y196555D02*
D03*
X201181Y144488D02*
D03*
X201138Y156504D02*
D03*
X200787Y150492D02*
D03*
D38*
X210039Y197539D02*
D03*
X265941Y244000D02*
D03*
X291000D02*
D03*
X289469Y203445D02*
D03*
X253937Y192913D02*
D03*
X154528Y210728D02*
D03*
X217913Y256693D02*
D03*
X218110Y263681D02*
D03*
X181398Y276900D02*
D03*
X181299Y255315D02*
D03*
D39*
X311100Y274300D02*
D03*
Y224400D02*
D03*
Y198400D02*
D03*
Y189000D02*
D03*
X287300Y133500D02*
D03*
X274267D02*
D03*
X248200D02*
D03*
X311100Y254340D02*
D03*
Y234380D02*
D03*
Y244360D02*
D03*
Y264320D02*
D03*
Y179600D02*
D03*
X261233Y133500D02*
D03*
D40*
X301631Y165611D02*
X300516Y165890D01*
X299370Y165984D01*
X221965Y146602D02*
X222736D01*
D41*
X195858Y188583D02*
X196838Y188631D01*
X197809Y188775D01*
X198761Y189013D01*
X199685Y189344D01*
X200572Y189763D01*
X201414Y190268D01*
X202202Y190853D01*
X202929Y191512D01*
X209744Y198327D01*
X210039Y197539D02*
Y198130D01*
X209744Y198425D02*
X210039Y198130D01*
D42*
X225071Y275071D02*
X225730Y275798D01*
X226315Y276586D01*
X226819Y277428D01*
X227239Y278315D01*
X227569Y279239D01*
X227808Y280191D01*
X227952Y281162D01*
X228000Y282142D01*
Y283300D01*
D43*
X171898Y227350D02*
D03*
X186701D02*
D03*
D44*
X291000Y255000D02*
D03*
D45*
X281900Y230599D02*
D03*
X291000D02*
D03*
X300100D02*
D03*
D46*
X230900Y245000D02*
D03*
Y250000D02*
D03*
Y255000D02*
D03*
Y260000D02*
D03*
X208700D02*
D03*
Y255000D02*
D03*
Y250000D02*
D03*
Y245000D02*
D03*
D47*
X189795Y328398D02*
D03*
X182433D02*
D03*
X177362Y266000D02*
D03*
X170000D02*
D03*
X178000Y240000D02*
D03*
X170638D02*
D03*
X272016Y194634D02*
D03*
X279378D02*
D03*
D48*
X155000Y242575D02*
D03*
Y266000D02*
D03*
D49*
X263984Y232937D02*
D03*
X253984D02*
D03*
X263984Y269905D02*
D03*
X253984D02*
D03*
X263984Y185937D02*
D03*
X253984D02*
D03*
X263984Y222905D02*
D03*
X253984D02*
D03*
D50*
X149681Y134949D02*
D03*
X154681D02*
D03*
X159681D02*
D03*
X164681D02*
D03*
X169681D02*
D03*
X174681D02*
D03*
X179681D02*
D03*
X184681D02*
D03*
X189681D02*
D03*
X194681D02*
D03*
X199681D02*
D03*
X204681D02*
D03*
X209681D02*
D03*
X214681D02*
D03*
Y205815D02*
D03*
X209681D02*
D03*
X204681D02*
D03*
X199681D02*
D03*
X194681D02*
D03*
X189681D02*
D03*
X184681D02*
D03*
X179681D02*
D03*
X174681D02*
D03*
X169681D02*
D03*
X164681D02*
D03*
X159681D02*
D03*
X154681D02*
D03*
X149681D02*
D03*
D51*
X220587Y147882D02*
D03*
Y152882D02*
D03*
Y157882D02*
D03*
Y162882D02*
D03*
Y167882D02*
D03*
Y172882D02*
D03*
Y177882D02*
D03*
Y182882D02*
D03*
Y187882D02*
D03*
Y192882D02*
D03*
D52*
X177000Y173000D02*
D03*
D53*
X258335Y161417D02*
D03*
X241535D02*
D03*
X307450Y212500D02*
D03*
X290650D02*
D03*
X297800Y268000D02*
D03*
X281000D02*
D03*
D54*
X164681Y188583D02*
X164692D01*
M02*
