G04 Layer_Color=32896*
%FSLAX25Y25*%
%MOIN*%
G70*
G01*
G75*
%ADD10C,0.01575*%
%ADD24C,0.01000*%
%ADD40C,0.01181*%
%ADD56C,0.00787*%
G36*
X134740Y172358D02*
X134745D01*
Y170382D01*
X134740D01*
Y160539D01*
X125041D01*
Y152610D01*
X142689D01*
Y150697D01*
X125041D01*
Y142741D01*
X142694D01*
Y140854D01*
X123126D01*
Y142741D01*
Y150697D01*
Y152610D01*
Y160539D01*
Y162477D01*
X128821D01*
Y162473D01*
X132968D01*
Y170382D01*
X125094D01*
Y172358D01*
X132968D01*
Y172359D01*
X134740D01*
Y172358D01*
D02*
G37*
G36*
X144712Y150697D02*
X142811D01*
Y152634D01*
X144712D01*
Y150697D01*
D02*
G37*
G36*
X144679Y140854D02*
X142811D01*
Y142748D01*
X144679D01*
Y140854D01*
D02*
G37*
G36*
X124902Y170382D02*
X123126D01*
Y182233D01*
X124902D01*
Y170382D01*
D02*
G37*
G36*
X142711Y199909D02*
X140842D01*
Y201958D01*
X142711D01*
Y199909D01*
D02*
G37*
G36*
X140729D02*
X125030D01*
Y190067D01*
X123126D01*
Y199909D01*
Y201965D01*
X140729D01*
Y199909D01*
D02*
G37*
G36*
X134750Y192068D02*
X134866D01*
Y180224D01*
X125094D01*
Y182233D01*
X132968D01*
Y190067D01*
X125094D01*
Y192121D01*
X134750D01*
Y192068D01*
D02*
G37*
D10*
X120173Y205815D02*
X145764D01*
X120173Y134949D02*
Y205815D01*
Y134949D02*
X145764D01*
D24*
X255834Y260850D02*
X255604Y261783D01*
X254967Y262503D01*
X254069Y262843D01*
X253115Y262727D01*
X252324Y262182D01*
X251878Y261331D01*
Y260370D01*
X252324Y259519D01*
X253115Y258973D01*
X254069Y258857D01*
X254967Y259198D01*
X255604Y259917D01*
X255834Y260850D01*
Y213850D02*
X255604Y214783D01*
X254967Y215503D01*
X254069Y215843D01*
X253115Y215727D01*
X252324Y215182D01*
X251878Y214331D01*
Y213370D01*
X252324Y212519D01*
X253115Y211973D01*
X254069Y211858D01*
X254967Y212198D01*
X255604Y212917D01*
X255834Y213850D01*
D40*
X231535Y159917D02*
Y162917D01*
X230035Y161417D02*
X233035D01*
X280650Y211000D02*
Y214000D01*
X279150Y212500D02*
X282150D01*
X271000Y266500D02*
Y269500D01*
X269500Y268000D02*
X272500D01*
D56*
X221000Y242600D02*
X220649Y243448D01*
X219800Y243800D01*
X218952Y243448D01*
X218600Y242600D01*
X149995Y211189D02*
X149207D01*
X149995D01*
X164805Y226870D02*
X167233Y233461D01*
X164805Y226870D02*
X166978Y221591D01*
X278100Y249299D02*
X303900D01*
Y236299D02*
Y249299D01*
X278100Y236299D02*
X303900D01*
X278100D02*
Y249299D01*
X213792Y242600D02*
X218600D01*
X221000D01*
X226095D01*
X213300Y262400D02*
X226194Y262390D01*
X171872Y288437D02*
X180828D01*
X171970Y304087D02*
X180828D01*
X172276Y319776D02*
X181232D01*
X172275Y304126D02*
X181134D01*
X172244Y316240D02*
X181201D01*
X172343Y331890D02*
X181201D01*
X193996Y323917D02*
Y332874D01*
X178346Y324016D02*
Y332874D01*
X172276Y288576D02*
X181232D01*
X172275Y272926D02*
X181134D01*
X265602Y169043D02*
X274559D01*
X265602Y153394D02*
X274461D01*
X275150Y169043D02*
X284106D01*
X275149Y153394D02*
X284008D01*
X181563Y261520D02*
Y270476D01*
X165913Y261618D02*
Y270476D01*
X182201Y235520D02*
Y244476D01*
X166551Y235618D02*
Y244476D01*
X219520Y262437D02*
X228476D01*
X219618Y278087D02*
X228476D01*
X270524Y218201D02*
X279480D01*
X270524Y202551D02*
X279382D01*
X238524Y267563D02*
X247480D01*
X238524Y251913D02*
X247382D01*
X267815Y190157D02*
Y199114D01*
X283465Y190157D02*
Y199016D01*
X238520Y232437D02*
X247476D01*
X238618Y248087D02*
X247476D01*
X182677Y271949D02*
X202165D01*
X182677Y283465D02*
X202165D01*
X195507Y252157D02*
Y271646D01*
X183991Y252157D02*
Y271646D01*
X195521Y236466D02*
Y255955D01*
X184005Y236466D02*
Y255955D01*
X205512Y228642D02*
X225000D01*
X205512Y240158D02*
X225000D01*
X145059Y272102D02*
X164941D01*
X145059Y236276D02*
X164941D01*
X217614Y205815D02*
X220567D01*
Y195972D02*
Y205815D01*
Y134949D02*
Y144791D01*
X217614Y134949D02*
X220567D01*
X237735Y154717D02*
X262135D01*
X237735Y168117D02*
X262135D01*
X286850Y205800D02*
X311250D01*
X286850Y219200D02*
X311250D01*
X277200Y261300D02*
X301600D01*
X277200Y274700D02*
X301600D01*
M02*
