G04 Layer_Color=16711935*
%FSLAX25Y25*%
%MOIN*%
G70*
G01*
G75*
%ADD58C,0.12611*%
%ADD59C,0.06706*%
G04:AMPARAMS|DCode=63|XSize=47.37mil|YSize=63.91mil|CornerRadius=5.97mil|HoleSize=0mil|Usage=FLASHONLY|Rotation=270.000|XOffset=0mil|YOffset=0mil|HoleType=Round|Shape=RoundedRectangle|*
%AMROUNDEDRECTD63*
21,1,0.04737,0.05197,0,0,270.0*
21,1,0.03543,0.06391,0,0,270.0*
1,1,0.01194,-0.02598,-0.01772*
1,1,0.01194,-0.02598,0.01772*
1,1,0.01194,0.02598,0.01772*
1,1,0.01194,0.02598,-0.01772*
%
%ADD63ROUNDEDRECTD63*%
G04:AMPARAMS|DCode=64|XSize=53.67mil|YSize=79.65mil|CornerRadius=6.28mil|HoleSize=0mil|Usage=FLASHONLY|Rotation=0.000|XOffset=0mil|YOffset=0mil|HoleType=Round|Shape=RoundedRectangle|*
%AMROUNDEDRECTD64*
21,1,0.05367,0.06709,0,0,0.0*
21,1,0.04110,0.07965,0,0,0.0*
1,1,0.01257,0.02055,-0.03354*
1,1,0.01257,-0.02055,-0.03354*
1,1,0.01257,-0.02055,0.03354*
1,1,0.01257,0.02055,0.03354*
%
%ADD64ROUNDEDRECTD64*%
G04:AMPARAMS|DCode=65|XSize=53.67mil|YSize=79.65mil|CornerRadius=6.28mil|HoleSize=0mil|Usage=FLASHONLY|Rotation=90.000|XOffset=0mil|YOffset=0mil|HoleType=Round|Shape=RoundedRectangle|*
%AMROUNDEDRECTD65*
21,1,0.05367,0.06709,0,0,90.0*
21,1,0.04110,0.07965,0,0,90.0*
1,1,0.01257,0.03354,0.02055*
1,1,0.01257,0.03354,-0.02055*
1,1,0.01257,-0.03354,-0.02055*
1,1,0.01257,-0.03354,0.02055*
%
%ADD65ROUNDEDRECTD65*%
%ADD66R,0.06706X0.06706*%
%ADD67R,0.06706X0.06706*%
%ADD68C,0.06737*%
G04:AMPARAMS|DCode=69|XSize=67.37mil|YSize=67.37mil|CornerRadius=6.97mil|HoleSize=0mil|Usage=FLASHONLY|Rotation=180.000|XOffset=0mil|YOffset=0mil|HoleType=Round|Shape=RoundedRectangle|*
%AMROUNDEDRECTD69*
21,1,0.06737,0.05343,0,0,180.0*
21,1,0.05343,0.06737,0,0,180.0*
1,1,0.01394,-0.02672,0.02672*
1,1,0.01394,0.02672,0.02672*
1,1,0.01394,0.02672,-0.02672*
1,1,0.01394,-0.02672,-0.02672*
%
%ADD69ROUNDEDRECTD69*%
%ADD70C,0.07887*%
%ADD71C,0.09855*%
G04:AMPARAMS|DCode=72|XSize=74.93mil|YSize=98.55mil|CornerRadius=5.67mil|HoleSize=0mil|Usage=FLASHONLY|Rotation=180.000|XOffset=0mil|YOffset=0mil|HoleType=Round|Shape=RoundedRectangle|*
%AMROUNDEDRECTD72*
21,1,0.07493,0.08721,0,0,180.0*
21,1,0.06358,0.09855,0,0,180.0*
1,1,0.01135,-0.03179,0.04360*
1,1,0.01135,0.03179,0.04360*
1,1,0.01135,0.03179,-0.04360*
1,1,0.01135,-0.03179,-0.04360*
%
%ADD72ROUNDEDRECTD72*%
G04:AMPARAMS|DCode=73|XSize=106.42mil|YSize=86.74mil|CornerRadius=5.97mil|HoleSize=0mil|Usage=FLASHONLY|Rotation=180.000|XOffset=0mil|YOffset=0mil|HoleType=Round|Shape=RoundedRectangle|*
%AMROUNDEDRECTD73*
21,1,0.10642,0.07480,0,0,180.0*
21,1,0.09449,0.08674,0,0,180.0*
1,1,0.01194,-0.04724,0.03740*
1,1,0.01194,0.04724,0.03740*
1,1,0.01194,0.04724,-0.03740*
1,1,0.01194,-0.04724,-0.03740*
%
%ADD73ROUNDEDRECTD73*%
%ADD74C,0.08674*%
%ADD75C,0.03162*%
%ADD76R,0.07808X0.10800*%
G04:AMPARAMS|DCode=77|XSize=149.73mil|YSize=94.61mil|CornerRadius=8.33mil|HoleSize=0mil|Usage=FLASHONLY|Rotation=180.000|XOffset=0mil|YOffset=0mil|HoleType=Round|Shape=RoundedRectangle|*
%AMROUNDEDRECTD77*
21,1,0.14973,0.07795,0,0,180.0*
21,1,0.13307,0.09461,0,0,180.0*
1,1,0.01666,-0.06653,0.03898*
1,1,0.01666,0.06653,0.03898*
1,1,0.01666,0.06653,-0.03898*
1,1,0.01666,-0.06653,-0.03898*
%
%ADD77ROUNDEDRECTD77*%
G04:AMPARAMS|DCode=78|XSize=56mil|YSize=96mil|CornerRadius=6.4mil|HoleSize=0mil|Usage=FLASHONLY|Rotation=180.000|XOffset=0mil|YOffset=0mil|HoleType=Round|Shape=RoundedRectangle|*
%AMROUNDEDRECTD78*
21,1,0.05600,0.08320,0,0,180.0*
21,1,0.04320,0.09600,0,0,180.0*
1,1,0.01280,-0.02160,0.04160*
1,1,0.01280,0.02160,0.04160*
1,1,0.01280,0.02160,-0.04160*
1,1,0.01280,-0.02160,-0.04160*
%
%ADD78ROUNDEDRECTD78*%
G04:AMPARAMS|DCode=79|XSize=66mil|YSize=30mil|CornerRadius=5.1mil|HoleSize=0mil|Usage=FLASHONLY|Rotation=0.000|XOffset=0mil|YOffset=0mil|HoleType=Round|Shape=RoundedRectangle|*
%AMROUNDEDRECTD79*
21,1,0.06600,0.01980,0,0,0.0*
21,1,0.05580,0.03000,0,0,0.0*
1,1,0.01020,0.02790,-0.00990*
1,1,0.01020,-0.02790,-0.00990*
1,1,0.01020,-0.02790,0.00990*
1,1,0.01020,0.02790,0.00990*
%
%ADD79ROUNDEDRECTD79*%
G04:AMPARAMS|DCode=80|XSize=47.37mil|YSize=63.91mil|CornerRadius=5.97mil|HoleSize=0mil|Usage=FLASHONLY|Rotation=180.000|XOffset=0mil|YOffset=0mil|HoleType=Round|Shape=RoundedRectangle|*
%AMROUNDEDRECTD80*
21,1,0.04737,0.05197,0,0,180.0*
21,1,0.03543,0.06391,0,0,180.0*
1,1,0.01194,-0.01772,0.02598*
1,1,0.01194,0.01772,0.02598*
1,1,0.01194,0.01772,-0.02598*
1,1,0.01194,-0.01772,-0.02598*
%
%ADD80ROUNDEDRECTD80*%
G04:AMPARAMS|DCode=81|XSize=86.74mil|YSize=165.48mil|CornerRadius=7.94mil|HoleSize=0mil|Usage=FLASHONLY|Rotation=270.000|XOffset=0mil|YOffset=0mil|HoleType=Round|Shape=RoundedRectangle|*
%AMROUNDEDRECTD81*
21,1,0.08674,0.14961,0,0,270.0*
21,1,0.07087,0.16548,0,0,270.0*
1,1,0.01587,-0.07480,-0.03543*
1,1,0.01587,-0.07480,0.03543*
1,1,0.01587,0.07480,0.03543*
1,1,0.01587,0.07480,-0.03543*
%
%ADD81ROUNDEDRECTD81*%
G04:AMPARAMS|DCode=82|XSize=74.14mil|YSize=75.32mil|CornerRadius=7.31mil|HoleSize=0mil|Usage=FLASHONLY|Rotation=270.000|XOffset=0mil|YOffset=0mil|HoleType=Round|Shape=RoundedRectangle|*
%AMROUNDEDRECTD82*
21,1,0.07414,0.06071,0,0,270.0*
21,1,0.05953,0.07532,0,0,270.0*
1,1,0.01461,-0.03035,-0.02976*
1,1,0.01461,-0.03035,0.02976*
1,1,0.01461,0.03035,0.02976*
1,1,0.01461,0.03035,-0.02976*
%
%ADD82ROUNDEDRECTD82*%
G04:AMPARAMS|DCode=83|XSize=74.93mil|YSize=43.43mil|CornerRadius=7.9mil|HoleSize=0mil|Usage=FLASHONLY|Rotation=90.000|XOffset=0mil|YOffset=0mil|HoleType=Round|Shape=RoundedRectangle|*
%AMROUNDEDRECTD83*
21,1,0.07493,0.02764,0,0,90.0*
21,1,0.05913,0.04343,0,0,90.0*
1,1,0.01580,0.01382,0.02957*
1,1,0.01580,0.01382,-0.02957*
1,1,0.01580,-0.01382,-0.02957*
1,1,0.01580,-0.01382,0.02957*
%
%ADD83ROUNDEDRECTD83*%
G04:AMPARAMS|DCode=84|XSize=74.93mil|YSize=43.43mil|CornerRadius=7.9mil|HoleSize=0mil|Usage=FLASHONLY|Rotation=180.000|XOffset=0mil|YOffset=0mil|HoleType=Round|Shape=RoundedRectangle|*
%AMROUNDEDRECTD84*
21,1,0.07493,0.02764,0,0,180.0*
21,1,0.05913,0.04343,0,0,180.0*
1,1,0.01580,-0.02957,0.01382*
1,1,0.01580,0.02957,0.01382*
1,1,0.01580,0.02957,-0.01382*
1,1,0.01580,-0.02957,-0.01382*
%
%ADD84ROUNDEDRECTD84*%
G04:AMPARAMS|DCode=85|XSize=165.48mil|YSize=165.48mil|CornerRadius=6.36mil|HoleSize=0mil|Usage=FLASHONLY|Rotation=90.000|XOffset=0mil|YOffset=0mil|HoleType=Round|Shape=RoundedRectangle|*
%AMROUNDEDRECTD85*
21,1,0.16548,0.15276,0,0,90.0*
21,1,0.15276,0.16548,0,0,90.0*
1,1,0.01272,0.07638,0.07638*
1,1,0.01272,0.07638,-0.07638*
1,1,0.01272,-0.07638,-0.07638*
1,1,0.01272,-0.07638,0.07638*
%
%ADD85ROUNDEDRECTD85*%
G04:AMPARAMS|DCode=86|XSize=103mil|YSize=97mil|CornerRadius=8.45mil|HoleSize=0mil|Usage=FLASHONLY|Rotation=270.000|XOffset=0mil|YOffset=0mil|HoleType=Round|Shape=RoundedRectangle|*
%AMROUNDEDRECTD86*
21,1,0.10300,0.08010,0,0,270.0*
21,1,0.08610,0.09700,0,0,270.0*
1,1,0.01690,-0.04005,-0.04305*
1,1,0.01690,-0.04005,0.04305*
1,1,0.01690,0.04005,0.04305*
1,1,0.01690,0.04005,-0.04305*
%
%ADD86ROUNDEDRECTD86*%
D58*
X131800Y245400D02*
D03*
Y265085D02*
D03*
X162079Y298917D02*
D03*
X192000D02*
D03*
Y318602D02*
D03*
D59*
X230610Y184646D02*
D03*
Y152953D02*
D03*
X205000Y215000D02*
D03*
X215000D02*
D03*
X238819Y301279D02*
D03*
X289370Y175984D02*
D03*
Y165984D02*
D03*
Y155984D02*
D03*
X299370Y185984D02*
D03*
Y175984D02*
D03*
Y165984D02*
D03*
Y155984D02*
D03*
D63*
X176352Y292638D02*
D03*
Y300000D02*
D03*
X176752Y315575D02*
D03*
Y308213D02*
D03*
X176724Y320441D02*
D03*
Y327803D02*
D03*
X176752Y284375D02*
D03*
Y277013D02*
D03*
X270079Y164842D02*
D03*
Y157480D02*
D03*
X279626Y164842D02*
D03*
Y157480D02*
D03*
X224000Y266638D02*
D03*
Y274000D02*
D03*
X275000Y214000D02*
D03*
Y206638D02*
D03*
X243000Y263362D02*
D03*
Y256000D02*
D03*
Y236638D02*
D03*
Y244000D02*
D03*
D64*
X198278Y277706D02*
D03*
X186664D02*
D03*
X221112Y234399D02*
D03*
X209498D02*
D03*
D65*
X189750Y267758D02*
D03*
Y256144D02*
D03*
X189764Y252067D02*
D03*
Y240453D02*
D03*
D66*
X248819Y301279D02*
D03*
D67*
X289370Y185984D02*
D03*
D68*
X238327Y174606D02*
D03*
X248327D02*
D03*
X258327D02*
D03*
D69*
X268327D02*
D03*
D70*
X303256Y291165D02*
D03*
X263886Y299827D02*
D03*
D71*
X131800Y245400D02*
D03*
Y265085D02*
D03*
X132000Y291000D02*
D03*
Y310685D02*
D03*
X209823Y315354D02*
D03*
X229823D02*
D03*
X289823D02*
D03*
X269823D02*
D03*
D72*
X291000Y283500D02*
D03*
X281000D02*
D03*
D73*
X230213Y284000D02*
D03*
X211787D02*
D03*
D74*
X192000Y298917D02*
D03*
X162079D02*
D03*
X192000Y318602D02*
D03*
X162079D02*
D03*
Y220177D02*
D03*
X192000D02*
D03*
D75*
X178642Y176969D02*
D03*
X170472D02*
D03*
X178642Y173000D02*
D03*
X170472D02*
D03*
X178642Y169095D02*
D03*
X170472D02*
D03*
X174705D02*
D03*
Y173000D02*
D03*
Y176969D02*
D03*
D76*
X171898Y227350D02*
D03*
X186701D02*
D03*
D77*
X291000Y255000D02*
D03*
D78*
X281900Y230599D02*
D03*
X291000D02*
D03*
X300100D02*
D03*
D79*
X230900Y245000D02*
D03*
Y250000D02*
D03*
Y255000D02*
D03*
Y260000D02*
D03*
X208700D02*
D03*
Y255000D02*
D03*
Y250000D02*
D03*
Y245000D02*
D03*
D80*
X189795Y328398D02*
D03*
X182433D02*
D03*
X177362Y266000D02*
D03*
X170000D02*
D03*
X178000Y240000D02*
D03*
X170638D02*
D03*
X272016Y194634D02*
D03*
X279378D02*
D03*
D81*
X155000Y242575D02*
D03*
Y266000D02*
D03*
D82*
X263984Y232937D02*
D03*
X253984D02*
D03*
X263984Y269905D02*
D03*
X253984D02*
D03*
X263984Y185937D02*
D03*
X253984D02*
D03*
X263984Y222905D02*
D03*
X253984D02*
D03*
D83*
X149681Y134949D02*
D03*
X154681D02*
D03*
X159681D02*
D03*
X164681D02*
D03*
X169681D02*
D03*
X174681D02*
D03*
X179681D02*
D03*
X184681D02*
D03*
X189681D02*
D03*
X194681D02*
D03*
X199681D02*
D03*
X204681D02*
D03*
X209681D02*
D03*
X214681D02*
D03*
Y205815D02*
D03*
X209681D02*
D03*
X204681D02*
D03*
X199681D02*
D03*
X194681D02*
D03*
X189681D02*
D03*
X184681D02*
D03*
X179681D02*
D03*
X174681D02*
D03*
X169681D02*
D03*
X164681D02*
D03*
X159681D02*
D03*
X154681D02*
D03*
X149681D02*
D03*
D84*
X220587Y147882D02*
D03*
Y152882D02*
D03*
Y157882D02*
D03*
Y162882D02*
D03*
Y167882D02*
D03*
Y172882D02*
D03*
Y177882D02*
D03*
Y182882D02*
D03*
Y187882D02*
D03*
Y192882D02*
D03*
D85*
X177000Y173000D02*
D03*
D86*
X258335Y161417D02*
D03*
X241535D02*
D03*
X307450Y212500D02*
D03*
X290650D02*
D03*
X297800Y268000D02*
D03*
X281000D02*
D03*
M02*
