G04 Layer_Color=65535*
%FSLAX25Y25*%
%MOIN*%
G70*
G01*
G75*
%ADD10C,0.01575*%
%ADD24C,0.01000*%
%ADD55C,0.00984*%
%ADD56C,0.00787*%
%ADD57C,0.00800*%
D10*
X241437Y135531D02*
Y143403D01*
X245373D01*
X246685Y142091D01*
Y139467D01*
X245373Y138155D01*
X241437D01*
X244061D02*
X246685Y135531D01*
X253244D02*
X250620D01*
X249308Y136843D01*
Y139467D01*
X250620Y140779D01*
X253244D01*
X254556Y139467D01*
Y138155D01*
X249308D01*
X257180Y140779D02*
X259804Y135531D01*
X262428Y140779D01*
X272923Y135531D02*
X275547D01*
X274235D01*
Y143403D01*
X272923Y142091D01*
X279483Y135531D02*
Y136843D01*
X280794D01*
Y135531D01*
X279483D01*
X291290D02*
X286042D01*
X291290Y140779D01*
Y142091D01*
X289978Y143403D01*
X287354D01*
X286042Y142091D01*
D24*
X292886Y296395D02*
Y290397D01*
X290886Y292397D01*
X288887Y290397D01*
Y296395D01*
X283889Y290397D02*
X285888D01*
X286888Y291397D01*
Y295396D01*
X285888Y296395D01*
X283889D01*
X282889Y295396D01*
Y291397D01*
X283889Y290397D01*
X280890D02*
Y294396D01*
X278890Y296395D01*
X276891Y294396D01*
Y290397D01*
X274892Y296395D02*
X272892D01*
X273892D01*
Y290397D01*
X274892Y291397D01*
X125243Y328833D02*
X123244D01*
X122244Y327833D01*
Y323834D01*
X123244Y322835D01*
X125243D01*
X126243Y323834D01*
Y327833D01*
X125243Y328833D01*
X128242D02*
Y323834D01*
X129242Y322835D01*
X131241D01*
X132241Y323834D01*
Y328833D01*
X134240D02*
X138239D01*
X136240D01*
Y322835D01*
X146236Y328833D02*
Y322835D01*
X150235D01*
X127000Y231298D02*
X128999D01*
X128000D01*
Y225300D01*
X127000D01*
X128999D01*
X131998D02*
Y231298D01*
X135997Y225300D01*
Y231298D01*
X143994Y225300D02*
Y231298D01*
X147993Y225300D01*
Y231298D01*
D55*
X249311Y293209D02*
X248573Y293635D01*
Y292782D01*
X249311Y293209D01*
X187598Y187402D02*
X186860Y187828D01*
Y186975D01*
X187598Y187402D01*
X199213Y144095D02*
X210630D01*
X199213Y161811D02*
X210630D01*
X156299Y167618D02*
Y179035D01*
X174016Y167618D02*
Y179035D01*
D56*
X280221Y173339D02*
X279433D01*
X280221D01*
X233307Y306791D02*
X254331D01*
X233307Y295768D02*
X254331D01*
X233307D02*
Y306791D01*
X254331Y295768D02*
Y306791D01*
X284370Y150984D02*
X304370D01*
Y190984D01*
X284370D02*
X304370D01*
X284370Y150984D02*
Y190984D01*
X188287Y191634D02*
Y194783D01*
X191437D01*
X200098Y191634D02*
Y194783D01*
X196949D02*
X200098D01*
X230492Y154528D02*
Y178150D01*
Y154528D02*
X276161D01*
Y178150D01*
X230492D02*
X232362D01*
X274291D02*
X276161D01*
X151279Y208563D02*
X160236D01*
X151378Y192913D02*
X160236D01*
X205587Y191063D02*
X214543D01*
X205685Y175413D02*
X214543D01*
X196358Y183563D02*
X205315D01*
X196457Y167913D02*
X205315D01*
X186909D02*
X195866D01*
X186909Y183563D02*
X195768D01*
X159744Y213091D02*
X179232D01*
X159744Y201575D02*
X179232D01*
X175591Y140551D02*
Y160039D01*
X187106Y140551D02*
Y160039D01*
X152362Y154921D02*
X171851D01*
X152362Y143405D02*
X171850D01*
X119595Y274928D02*
X149516D01*
X119595Y233195D02*
X149516D01*
X122450Y240479D02*
Y250321D01*
Y260164D02*
Y270006D01*
X146564Y233195D02*
Y274928D01*
X149516Y233195D02*
Y274928D01*
X119595Y233195D02*
Y274928D01*
X119795Y320528D02*
X149716D01*
X119795Y278795D02*
X149716D01*
X122650Y286079D02*
Y295921D01*
Y305764D02*
Y315606D01*
X146764Y278795D02*
Y320528D01*
X149716Y278795D02*
Y320528D01*
X119795Y278795D02*
Y320528D01*
X197512Y212303D02*
X201842D01*
Y216240D01*
Y322539D02*
Y326476D01*
X197512D02*
X201842D01*
X152236Y326476D02*
X156173D01*
X152236Y322539D02*
Y326476D01*
Y212303D02*
Y216240D01*
Y212303D02*
X156173D01*
X272087Y283658D02*
X270088D01*
X269088Y282658D01*
Y280658D01*
X270088Y279659D01*
X272087D01*
X273087Y280658D01*
Y282658D01*
X272087Y283658D01*
X267089Y279659D02*
Y282658D01*
X266089Y283658D01*
X263090D01*
Y279659D01*
X260091Y278659D02*
Y279659D01*
X261090D01*
X259091D01*
X260091D01*
Y282658D01*
X259091Y283658D01*
X256092Y280658D02*
X252093D01*
X246413Y283854D02*
X244414D01*
X245414D01*
Y279856D01*
X246413D01*
X241415Y283854D02*
Y279856D01*
X238416D01*
X237416Y280855D01*
Y283854D01*
D57*
X301535Y149284D02*
X302368Y148451D01*
Y146785D01*
X301535Y145952D01*
X300702D01*
X299869Y146785D01*
X299036Y145952D01*
X298203D01*
X297370Y146785D01*
Y148451D01*
X298203Y149284D01*
X299036D01*
X299869Y148451D01*
X300702Y149284D01*
X301535D01*
X299869Y148451D02*
Y146785D01*
X287370D02*
X292369D01*
X289869Y149284D01*
Y145952D01*
X287370Y193984D02*
Y192318D01*
Y193151D01*
X292369D01*
X291535Y193984D01*
X302368Y192652D02*
Y195984D01*
X299869D01*
X300702Y194318D01*
Y193485D01*
X299869Y192652D01*
X298203D01*
X297370Y193485D01*
Y195151D01*
X298203Y195984D01*
M02*
